<svg width="11" height="12" fill="none" xmlns="http://www.w3.org/2000/svg"><path id=" ✽" d="M5.977 12c.546 0 .968-.547.968-1.326 0-.381-.14-.994-.406-1.856-.266-.862-.406-1.658-.406-2.37v-.216c.687.464 1.156.845 1.375 1.11.453.548 1.64 2.106 2.562 2.106a.897.897 0 0 0 .922-.912c0-.282-.11-.53-.328-.78-.437-.48-1.406-.712-2.547-.977C7.54 6.646 6.93 6.398 6.257 6c.688-.398 1.313-.663 1.907-.796a15.857 15.857 0 0 0 1.531-.414c.907-.315 1.297-.796 1.297-1.36a.85.85 0 0 0-.875-.878c-.312 0-.61.1-.906.315-.281.2-.797.73-1.531 1.592-.766.779-.657.712-1.547 1.309 0-.796.14-1.64.422-2.52.28-.878.422-1.524.422-1.922C6.977.53 6.555 0 6.007 0c-.562 0-.968.564-.968 1.326 0 .58.39 1.823.64 2.619.126.398.173.945.173 1.607v.216c-.625-.398-1.11-.812-1.454-1.227-.687-.828-1.656-1.989-2.484-1.989-.547 0-.922.382-.922.879 0 .282.11.547.313.796.406.497 1.343.712 2.515.977.594.133 1.235.398 1.907.796-.657.398-1.282.663-1.844.779-.578.116-1.094.265-1.547.398-.922.265-1.344.812-1.344 1.359 0 .497.406.912.906.912.813 0 1.579-.912 2.36-1.84.39-.464.906-.928 1.594-1.376 0 .862-.141 1.69-.422 2.553-.282.845-.422 1.475-.422 1.889 0 .746.39 1.326.969 1.326Z" fill="#1E2EB8"/></svg>