<svg aria-hidden="true" style="width:0;height:0;position:absolute;overflow:hidden" xmlns="http://www.w3.org/2000/svg"><defs><symbol id="menu_40px" viewBox="0 0 32 32"><path d="M6.4 11.736V9.6h19.2v2.136H6.4zm0 5.328h19.2v-2.128H6.4v2.128zm0 5.336h19.2v-2.136H6.4V22.4z"/></symbol><symbol id="close_40px" viewBox="0 0 32 32"><path d="M23.736 10.304 22.232 8.8l-5.968 5.96-5.96-5.96L8.8 10.304l5.96 5.96L8.8 22.24l1.504 1.504 5.96-5.968 5.968 5.968 1.504-1.504-5.968-5.968 5.968-5.96z"/></symbol><symbol id="copyright" viewBox="0 0 32 32"><path fill="#9da4bd" style="fill:var(--color1,#9da4bd)" d="M15.813 11.413c2.053.107 2.56 1.867 2.613 2.667h2.853c-.133-3.173-2.4-5.093-5.52-5.093-3.547 0-6.16 2.213-6.16 7.227 0 3.12 1.493 6.8 6.133 6.8 3.573 0 5.467-2.667 5.52-4.72h-2.88c-.027.933-.72 2.213-2.587 2.293-2.107-.053-2.987-1.653-2.987-4.373 0-4.613 2.053-4.747 3.013-4.8zM16 0C7.163 0 0 7.163 0 16s7.163 16 16 16 16-7.163 16-16S24.837 0 16 0zm0 28.8c-7.071-.008-12.8-5.741-12.8-12.813C3.2 8.91 8.937 3.174 16.013 3.174h.014-.001c7.071.008 12.8 5.741 12.8 12.813 0 7.077-5.737 12.813-12.813 12.813h-.014H16z"/></symbol><symbol id="search-2" viewBox="0 0 32 32"><path fill="none" stroke="#fff" style="stroke:var(--color2,#fff)" stroke-linejoin="round" stroke-linecap="round" stroke-width="2.667" d="M14.667 25.333c5.891 0 10.667-4.776 10.667-10.667S20.558 3.999 14.667 3.999 4 8.775 4 14.666s4.776 10.667 10.667 10.667zM28 28.001l-5.8-5.8"/></symbol><symbol id="search" viewBox="0 0 32 32"><path d="m31.008 27.231-7.58-6.447c-.784-.705-1.622-1.029-2.299-.998a11.954 11.954 0 0 0 2.87-7.787c0-6.627-5.373-12-12-12s-12 5.373-12 12 5.373 12 12 12c2.972 0 5.691-1.081 7.787-2.87-.031.677.293 1.515.998 2.299l6.447 7.58c1.104 1.226 2.907 1.33 4.007.23s.997-2.903-.23-4.007zM12 20a8 8 0 1 1 0-16 8 8 0 0 1 0 16z"/></symbol><symbol id="arrow-left2" viewBox="0 0 32 32"><path d="m12.586 27.414-10-10a2 2 0 0 1 0-2.828l10-10a2 2 0 1 1 2.828 2.828L8.828 14H28a2 2 0 1 1 0 4H8.828l6.586 6.586c.39.39.586.902.586 1.414s-.195 1.024-.586 1.414a2 2 0 0 1-2.828 0z"/></symbol><symbol id="arrow-right2" viewBox="0 0 32 32"><path d="m19.414 27.414 10-10a2 2 0 0 0 0-2.828l-10-10a2 2 0 1 0-2.828 2.828L23.172 14H4a2 2 0 1 0 0 4h19.172l-6.586 6.586c-.39.39-.586.902-.586 1.414s.195 1.024.586 1.414a2 2 0 0 0 2.828 0z"/></symbol><symbol id="arrow-up" viewBox="0 0 32 32"><path d="m27.414 12.586-10-10a2 2 0 0 0-2.828 0l-10 10a2 2 0 1 0 2.828 2.828L14 8.828V28a2 2 0 1 0 4 0V8.828l6.586 6.586c.39.39.902.586 1.414.586s1.024-.195 1.414-.586a2 2 0 0 0 0-2.828z"/></symbol><symbol id="facebook" viewBox="0 0 32 32"><path d="M21.328 5.312h2.928V.224C23.744.16 22.016 0 20 0c-4.224 0-7.104 2.656-7.104 7.52V12h-4.64v5.68h4.64V32h5.696V17.696h4.464L23.76 12h-5.168V8.08c0-1.648.448-2.768 2.736-2.768z"/></symbol><symbol id="instagram" viewBox="0 0 32 32"><path d="M31.968 9.408a11.64 11.64 0 0 0-.763-3.968l.027.08a7.858 7.858 0 0 0-1.854-2.83l-.002-.002c-.8-.8-1.76-1.44-2.832-1.84a11.483 11.483 0 0 0-3.875-.752h-.013c-1.458-.07-3.167-.109-4.885-.109-.6 0-1.199.005-1.797.014l.09-.001c-4.352 0-4.896.016-6.592.096C7.76.16 6.592.448 5.584.832a7.992 7.992 0 0 0-2.832 1.856c-.816.8-1.44 1.76-1.856 2.832A11.473 11.473 0 0 0 .16 9.397v.011c-.07 1.458-.109 3.167-.109 4.885 0 .6.005 1.199.014 1.797L.064 16c0 4.352 0 4.896.08 6.592.03 1.405.303 2.737.779 3.968l-.027-.08a7.782 7.782 0 0 0 1.856 2.832c.8.816 1.76 1.44 2.832 1.856 1.008.384 2.176.656 3.872.736 1.712.08 2.24.096 6.592.096s4.896-.016 6.608-.096a11.648 11.648 0 0 0 3.952-.763l-.08.027a8.242 8.242 0 0 0 4.669-4.633l.019-.055c.384-1.024.672-2.176.736-3.888.08-1.696.096-2.24.096-6.592 0-4.336 0-4.88-.08-6.592zm-2.88 13.072c-.064 1.552-.32 2.4-.544 2.96a5.34 5.34 0 0 1-3.004 3.027l-.036.013c-.56.224-1.424.48-2.976.544-1.68.08-2.192.096-6.464.096a114.015 114.015 0 0 1-6.706-.105l.242.009c-1.568-.064-2.4-.32-2.96-.544a4.96 4.96 0 0 1-1.839-1.199L4.8 27.28a4.975 4.975 0 0 1-1.189-1.79l-.011-.034a8.64 8.64 0 0 1-.544-2.972v-.004a108.653 108.653 0 0 1-.095-6.546l-.001.083c0-4.272.016-4.784.096-6.464.064-1.568.32-2.4.544-2.976a4.774 4.774 0 0 1 1.2-1.824 4.98 4.98 0 0 1 1.806-1.189l.034-.011c.56-.224 1.408-.48 2.976-.544 1.68-.08 2.192-.096 6.448-.096 4.288 0 4.8 0 6.464.096 1.568.064 2.4.32 2.976.544a4.831 4.831 0 0 1 1.84 1.2 4.966 4.966 0 0 1 1.2 1.824c.208.576.48 1.424.544 2.976.08 1.68.096 2.192.096 6.464s-.016 4.768-.096 6.464z"/><path d="M16.064 7.776a8.224 8.224 0 1 0 0 16.448 8.224 8.224 0 1 0 0-16.448zm0 13.552a5.327 5.327 0 1 1 0-10.656 5.327 5.327 0 1 1 0 10.656zM26.528 7.456a1.92 1.92 0 0 1-3.84 0 1.92 1.92 0 0 1 3.84 0z"/></symbol><symbol id="github" viewBox="0 0 32 32"><path d="M16 .395c-8.836 0-16 7.163-16 16 0 7.069 4.585 13.067 10.942 15.182.8.148 1.094-.347 1.094-.77 0-.381-.015-1.642-.022-2.979-4.452.968-5.391-1.888-5.391-1.888-.728-1.849-1.776-2.341-1.776-2.341-1.452-.993.11-.973.11-.973 1.606.113 2.452 1.649 2.452 1.649 1.427 2.446 3.743 1.739 4.656 1.33.143-1.034.558-1.74 1.016-2.14-3.554-.404-7.29-1.777-7.29-7.907 0-1.747.625-3.174 1.649-4.295-.166-.403-.714-2.03.155-4.234 0 0 1.344-.43 4.401 1.64a15.353 15.353 0 0 1 4.005-.539c1.359.006 2.729.184 4.008.539 3.054-2.07 4.395-1.64 4.395-1.64.871 2.204.323 3.831.157 4.234 1.026 1.12 1.647 2.548 1.647 4.295 0 6.145-3.743 7.498-7.306 7.895.574.497 1.085 1.47 1.085 2.963 0 2.141-.019 3.864-.019 4.391 0 .426.288.925 1.099.768C27.421 29.457 32 23.462 32 16.395c0-8.837-7.164-16-16-16z"/></symbol><symbol id="linkedin" viewBox="0 0 32 32"><path d="M12 12h5.535v2.837h.079c.77-1.381 2.655-2.837 5.464-2.837C28.92 12 30 15.637 30 20.367V30h-5.769v-8.54c0-2.037-.042-4.657-3.001-4.657-3.005 0-3.463 2.218-3.463 4.509V30H12V12zM2 12h6v18H2V12zm6-5a3 3 0 1 1-6 0 3 3 0 0 1 6 0z"/></symbol><symbol id="logo" viewBox="0 0 246 32"><path d="M172.838 31.865h57.568c8.792 0 15.919-7.127 15.919-15.919v-.027C246.325 7.127 239.198 0 230.406 0h-57.568c-8.792 0-15.919 7.127-15.919 15.919v.028-.001c0 8.792 7.127 15.919 15.919 15.919zM9.099 31.91h7.027V6.234h9.099V0H0v6.216h9.099zm25.315 0h7.027V7.433h.09l8.063 24.459h5.405l8.333-24.459h.09v24.459h7.027V0H59.863l-7.387 20.811h-.09L45.044 0H34.413zM80.306.108h10.541c2.587.004 5.095.332 7.489.947l-.21-.046a16.697 16.697 0 0 1 6.055 2.807l-.046-.032a13.688 13.688 0 0 1 4.046 4.893l.035.08c.955 2.036 1.512 4.421 1.512 6.936 0 .175-.003.348-.008.522l.001-.025a15.187 15.187 0 0 1-1.499 6.92l.04-.091a14.799 14.799 0 0 1-3.919 4.934l-.027.021a17.21 17.21 0 0 1-5.598 3.002l-.123.034c-1.999.657-4.299 1.036-6.688 1.036h-.12.006-11.486zm7.027 25.406h3.737c1.55 0 3.058-.181 4.504-.522l-.132.026a9.53 9.53 0 0 0 3.686-1.614l-.028.019a7.902 7.902 0 0 0 2.394-2.969l.02-.049a10.557 10.557 0 0 0 .9-4.59v.014l.002-.169a8.848 8.848 0 0 0-.926-3.955l.023.052a8.34 8.34 0 0 0-2.35-2.851l-.019-.014a10.365 10.365 0 0 0-3.377-1.667l-.074-.018a15.033 15.033 0 0 0-4.139-.568h-.082.004-4.144zM119.901.108h11.892c1.472.001 2.918.109 4.332.317l-.161-.019c1.4.185 2.668.598 3.82 1.201l-.063-.03A7.209 7.209 0 0 1 142.407 4l.017.027a7.425 7.425 0 0 1 1.035 4.207l.001-.018a6.712 6.712 0 0 1-1.514 4.516l.01-.012a8.244 8.244 0 0 1-3.933 2.526l-.058.014v.054a9.258 9.258 0 0 1 2.917.925l-.052-.024a7.7 7.7 0 0 1 2.202 1.661l.005.005a7.008 7.008 0 0 1 1.399 2.312l.016.049c.314.838.496 1.806.496 2.817v.069-.004a7.649 7.649 0 0 1-1.1 4.251l.019-.034a8.478 8.478 0 0 1-2.755 2.682l-.038.021a11.842 11.842 0 0 1-3.769 1.473l-.078.013c-1.277.286-2.744.45-4.25.45h-13.074zm7.027 12.748h5.128c.555 0 1.096-.066 1.613-.19l-.047.009a4.297 4.297 0 0 0 1.431-.596l-.017.01a3.11 3.11 0 0 0 1.01-1.066l.008-.015c.239-.443.38-.97.38-1.529l-.001-.097v.005a2.96 2.96 0 0 0-.404-1.654l.008.014a3.105 3.105 0 0 0-1.092-1.01l-.016-.008a5.334 5.334 0 0 0-1.563-.509l-.032-.004a8.715 8.715 0 0 0-1.665-.162h-4.776zm0 13.198h6.326c.577 0 1.139-.066 1.679-.19l-.05.01a4.194 4.194 0 0 0 1.519-.64l-.015.009a3.563 3.563 0 0 0 1.099-1.155l.009-.016a3.389 3.389 0 0 0 .425-1.652l-.002-.11v.005l.002-.106a2.83 2.83 0 0 0-.566-1.704l.005.007a3.618 3.618 0 0 0-1.4-1.054l-.024-.009a7.221 7.221 0 0 0-1.761-.491l-.04-.005a13.079 13.079 0 0 0-1.843-.135h-5.319z"/></symbol><symbol id="sound_9" viewBox="0 0 41 32"><path d="M9.363 27.544h3.24v27.429h-3.24V27.544zM15.872 18.304h3.24v27.429h-3.24V18.304zM22.38 25.258h3.24v27.429h-3.24V25.258zM28.54 13.729h3.24v27.429h-3.24V13.729z"/></symbol><symbol id="sound_8" viewBox="0 0 41 32"><path d="M9.363 25.3h3.24v27.429h-3.24V25.3zM15.872 13.775h3.24v27.429h-3.24V13.775zM22.38 20.729h3.24v27.429h-3.24V20.729zM28.54 9.199h3.24v27.429h-3.24V9.199z"/></symbol><symbol id="sound_7" viewBox="0 0 41 32"><path d="M9.363 20.729h3.24v27.429h-3.24V20.729zM15.872 9.204h3.24v27.429h-3.24V9.204zM22.38 16.157h3.24v27.429h-3.24V16.157zM28.54 13.771h3.24V41.2h-3.24V13.771z"/></symbol><symbol id="sound_6" viewBox="0 0 41 32"><path d="M9.363 16.157h3.24v27.429h-3.24V16.157zM15.872 11.489h3.24v27.429h-3.24V11.489zM22.38 20.729h3.24v27.429h-3.24V20.729zM28.54 18.342h3.24v27.429h-3.24V18.342z"/></symbol><symbol id="sound_5" viewBox="0 0 41 32"><path d="M9.363 18.443h3.24v27.429h-3.24V18.443zM15.872 16.061h3.24V43.49h-3.24V16.061zM22.38 25.3h3.24v27.429h-3.24V25.3zM28.54 22.914h3.24v27.429h-3.24V22.914z"/></symbol><symbol id="sound_4" viewBox="0 0 41 32"><path d="M9.363 20.729h3.24v27.429h-3.24V20.729zM15.872 22.918h3.24v27.429h-3.24V22.918zM22.38 25.3h3.24v27.429h-3.24V25.3zM28.54 18.342h3.24v27.429h-3.24V18.342z"/></symbol><symbol id="sound_3" viewBox="0 0 41 32"><path d="M9.363 25.3h3.24v27.429h-3.24V25.3zM15.872 18.346h3.24v27.429h-3.24V18.346zM22.38 23.015h3.24v27.429h-3.24V23.015zM28.54 13.771h3.24V41.2h-3.24V13.771z"/></symbol><symbol id="sound_2" viewBox="0 0 41 32"><path d="M9.363 23.015h3.24v27.429h-3.24V23.015zM15.872 13.775h3.24v27.429h-3.24V13.775zM22.38 18.443h3.24v27.429h-3.24V18.443zM28.54 9.199h3.24v27.429h-3.24V9.199z"/></symbol><symbol id="sound_1" viewBox="0 0 41 32"><path d="M9.363 18.443h3.24v27.429h-3.24V18.443zM15.872 9.204h3.24v27.429h-3.24V9.204zM22.38 20.729h3.24v27.429h-3.24V20.729zM28.54 13.771h3.24V41.2h-3.24V13.771z"/></symbol><symbol id="sound_off" viewBox="0 0 30 32"><path fill="#7988a3" style="fill:var(--color3,#7988a3)" d="M8.815 23.556V8.445h2.519v15.111H8.815zm5.037 5.037V3.408h2.518v25.185h-2.518zM3.778 18.519v-5.037h2.519v5.037H3.778zm15.111 5.037V8.445h2.519v15.111h-2.519zm5.037-5.037v-5.037h2.519v5.037h-2.519z"/></symbol><symbol id="sound" viewBox="0 0 32 32"><path d="M7.283 15.929h2.52v8.96h-2.52v-8.96zM12.345 10.681h2.52v14.208h-2.52V10.681zM17.407 15.929h2.52v8.96h-2.52v-8.96zM22.198 7.191h2.52v17.698h-2.52V7.191z"/></symbol><symbol id="flower" viewBox="0 0 28 32"><path d="M13.292 32c1.458 0 2.583-1.459 2.583-3.536 0-1.017-.375-2.652-1.083-4.95s-1.083-4.42-1.083-6.32v-.575c1.833 1.238 3.083 2.254 3.667 2.961 1.208 1.459 4.375 5.613 6.833 5.613 1.458 0 2.458-1.105 2.458-2.431 0-.751-.292-1.414-.875-2.077-1.167-1.282-3.75-1.901-6.792-2.608-1.542-.354-3.167-1.017-4.958-2.077 1.833-1.061 3.5-1.768 5.083-2.122 1.542-.354 2.917-.707 4.083-1.105 2.417-.84 3.458-2.122 3.458-3.624 0-1.37-1-2.343-2.333-2.343-.833 0-1.625.265-2.417.84-.75.53-2.125 1.945-4.083 4.243-2.042 2.077-1.75 1.901-4.125 3.492 0-2.122.375-4.376 1.125-6.718s1.125-4.066 1.125-5.127C15.958 1.414 14.833 0 13.375 0c-1.5 0-2.583 1.503-2.583 3.536 0 1.547 1.042 4.862 1.708 6.983.333 1.061.458 2.519.458 4.287v.575C11.291 14.32 10 13.215 9.083 12.11 7.25 9.9 4.666 6.806 2.458 6.806 1 6.806 0 7.823 0 9.149c0 .751.292 1.459.833 2.122 1.083 1.326 3.583 1.901 6.708 2.608 1.583.354 3.292 1.061 5.083 2.122-1.75 1.061-3.417 1.768-4.917 2.077-1.542.309-2.917.707-4.125 1.061-2.458.707-3.583 2.166-3.583 3.624 0 1.326 1.083 2.431 2.417 2.431 2.167 0 4.208-2.431 6.292-4.906 1.042-1.238 2.417-2.475 4.25-3.669 0 2.298-.375 4.508-1.125 6.807-.75 2.254-1.125 3.934-1.125 5.039 0 1.989 1.042 3.536 2.583 3.536z"/></symbol><symbol id="switch" viewBox="0 0 68 32"><path fill="none" stroke="#bbc6da" style="stroke:var(--color2,#bbc6da)" stroke-width="2" d="M17.016 1h34c8.284 0 15 6.716 15 15s-6.716 15-15 15h-34c-8.284 0-15-6.716-15-15s6.716-15 15-15z"/><path fill="#1e2eb8" style="fill:var(--color1,#1e2eb8)" d="M17.016 0c8.837 0 16 7.163 16 16s-7.163 16-16 16-16-7.163-16-16 7.163-16 16-16z"/></symbol><symbol id="play" viewBox="0 0 24 32"><path d="M24 16 0 29.857V2.144L24 16z"/></symbol><symbol id="pause" viewBox="0 0 32 32"><path d="M4 4h10v24H4zm14 0h10v24H18z"/></symbol><symbol id="arrow-left" viewBox="0 0 24 24"><path d="M15.422 16.594 14.016 18l-6-6 6-6 1.406 1.406L10.828 12z"/></symbol><symbol id="arrow-right" viewBox="0 0 24 24"><path d="M8.578 16.594 13.172 12 8.578 7.406 9.984 6l6 6-6 6z"/></symbol><symbol id="plus" viewBox="0 0 24 24"><path d="M18.984 12.984h-6v6h-1.969v-6h-6v-1.969h6v-6h1.969v6h6v1.969z"/></symbol><symbol id="minus" viewBox="0 0 20 20"><path d="M16 10c0 .553-.048 1-.601 1H4.601C4.049 11 4 10.553 4 10s.049-1 .601-1H15.4c.552 0 .6.447.6 1z"/></symbol><symbol id="triangle" viewBox="0 0 24 24"><path d="M11.148 4.374a.973.973 0 0 1 .334-.332c.236-.143.506-.178.756-.116s.474.216.614.448l8.466 14.133c.07.12.119.268.128.434-.015.368-.119.591-.283.759a.988.988 0 0 1-.693.301L3.533 20a.997.997 0 0 1-.855-1.486zM9.432 3.346l-8.47 14.14c-.422.731-.506 1.55-.308 2.29s.68 1.408 1.398 1.822c.464.268.976.4 1.475.402H20.47a3 3 0 0 0 2.572-4.507L14.568 3.346a2.995 2.995 0 0 0-4.123-1.014c-.429.26-.775.615-1.012 1.014z"/></symbol><symbol id="triangle-left" viewBox="0 0 32 32"><path d="M22.134.459 7.678 14.915a1.543 1.543 0 0 0 0 2.169L22.134 31.54c.981.981 2.633.284 2.633-1.084V1.543c0-1.368-1.652-2.065-2.633-1.085z"/></symbol></defs></svg>