<svg class="svg-icon" style="width:1.25em;height:1em;vertical-align:middle;fill:currentColor;overflow:hidden" viewBox="0 0 1280 1024" xmlns="http://www.w3.org/2000/svg"><path d="m1267.632 916.194-138-106.66c55.2-87.939 86.36-190.178 86.36-297.537 0-190.66-95.46-367.158-255.298-472.057-22.34-14.66-52.36-8.48-67.02 13.9-14.68 22.34-8.44 52.36 13.9 67.02 132.54 86.979 211.639 233.198 211.639 391.157 0 85.56-23.92 167.179-66.44 238.118l-76.24-58.92c30.44-53.86 47.46-115.099 47.46-179.218 0-126.18-64.12-244.179-171.539-312.318-22.38-14.18-52.06-7.6-66.24 14.82-14.18 22.4-7.56 52.06 14.82 66.26 79.5 50.419 126.96 138.118 126.96 231.238 0 42.42-10.06 83.14-28.4 119.759l-79.12-61.16c6.76-18.7 11.52-38.14 11.52-58.6 0-63.759-35.06-122.659-91.539-153.758-23.16-12.66-52.38-4.32-65.22 18.9-12.78 23.22-4.32 52.4 18.9 65.22 23.52 12.919 38.24 36.359 40.8 62.119l-158.939-122.84V176.04c0-42.92-51.92-63.96-81.94-33.94l-99.419 99.4L90.94 6.74C76.98-4.1 56.86-1.6 46.02 12.36L6.74 62.9C-4.1 76.84-1.6 96.94 12.36 107.8l1176.712 909.453c13.96 10.86 34.06 8.34 44.92-5.62l39.28-50.54c10.82-13.94 8.32-34.04-5.64-44.899zM64 367.998v287.998c0 26.5 21.48 48 48 48h204.118l177.939 177.898c30.06 30.06 81.94 8.94 81.94-33.94V705.195L87.518 327.678c-13.8 8.42-23.52 22.96-23.52 40.32z"/></svg>