<svg width="11" height="12" viewBox="0 0 11 12" fill="none" xmlns="http://www.w3.org/2000/svg">
<path id="&#194;&#160;&#226;&#156;&#189;" d="M5.97656 12C6.52344 12 6.94531 11.453 6.94531 10.674C6.94531 10.2928 6.80469 9.67956 6.53906 8.81768C6.27344 7.9558 6.13281 7.16022 6.13281 6.44751V6.23204C6.82031 6.69613 7.28906 7.07735 7.50781 7.34254C7.96094 7.8895 9.14844 9.44751 10.0703 9.44751C10.6172 9.44751 10.9922 9.03315 10.9922 8.53591C10.9922 8.25414 10.8828 8.00553 10.6641 7.75691C10.2266 7.27624 9.25781 7.0442 8.11719 6.77901C7.53906 6.64641 6.92969 6.39779 6.25781 6C6.94531 5.60221 7.57031 5.33702 8.16406 5.20442C8.74219 5.07182 9.25781 4.93923 9.69531 4.79006C10.6016 4.47514 10.9922 3.99448 10.9922 3.43094C10.9922 2.91713 10.6172 2.55249 10.1172 2.55249C9.80469 2.55249 9.50781 2.65193 9.21094 2.8674C8.92969 3.0663 8.41406 3.59669 7.67969 4.45856C6.91406 5.23757 7.02344 5.17127 6.13281 5.76796C6.13281 4.97238 6.27344 4.12707 6.55469 3.24862C6.83594 2.37017 6.97656 1.72376 6.97656 1.32597C6.97656 0.530387 6.55469 0 6.00781 0C5.44531 0 5.03906 0.563536 5.03906 1.32597C5.03906 1.90608 5.42969 3.14917 5.67969 3.94475C5.80469 4.34254 5.85156 4.8895 5.85156 5.55249V5.76796C5.22656 5.37017 4.74219 4.9558 4.39844 4.54144C3.71094 3.71271 2.74219 2.55249 1.91406 2.55249C1.36719 2.55249 0.992188 2.9337 0.992188 3.43094C0.992188 3.71271 1.10156 3.9779 1.30469 4.22652C1.71094 4.72376 2.64844 4.93923 3.82031 5.20442C4.41406 5.33702 5.05469 5.60221 5.72656 6C5.07031 6.39779 4.44531 6.66298 3.88281 6.77901C3.30469 6.89503 2.78906 7.0442 2.33594 7.1768C1.41406 7.44199 0.992188 7.98895 0.992188 8.53591C0.992188 9.03315 1.39844 9.44751 1.89844 9.44751C2.71094 9.44751 3.47656 8.53591 4.25781 7.60774C4.64844 7.14365 5.16406 6.67956 5.85156 6.23204C5.85156 7.09392 5.71094 7.92265 5.42969 8.78453C5.14844 9.62983 5.00781 10.2597 5.00781 10.674C5.00781 11.4199 5.39844 12 5.97656 12Z" fill="#1E2EB8"/>
</svg>
