<svg aria-hidden="true" style="position: absolute; width: 0; height: 0; overflow: hidden;" version="1.1"
    xmlns="http://www.w3.org/2000/svg" xmlns:xlink="http://www.w3.org/1999/xlink">
    <defs>
        <symbol id="menu_40px" viewBox="0 0 32 32">
            <path
                d="M6.4 11.736v-2.136h19.2v2.136h-19.2zM6.4 17.064h19.2v-2.128h-19.2v2.128zM6.4 22.4h19.2v-2.136h-19.2v2.136z">
            </path>
        </symbol>
        <symbol id="close_40px" viewBox="0 0 32 32">
            <path
                d="M23.736 10.304l-1.504-1.504-5.968 5.96-5.96-5.96-1.504 1.504 5.96 5.96-5.96 5.976 1.504 1.504 5.96-5.968 5.968 5.968 1.504-1.504-5.968-5.968 5.968-5.96z">
            </path>
        </symbol>
        <symbol id="copyright" viewBox="0 0 32 32">
            <path fill="#9da4bd" style="fill: var(--color1, #9da4bd)"
                d="M15.813 11.413c2.053 0.107 2.56 1.867 2.613 2.667h2.853c-0.133-3.173-2.4-5.093-5.52-5.093-3.547 0-6.16 2.213-6.16 7.227 0 3.12 1.493 6.8 6.133 6.8 3.573 0 5.467-2.667 5.52-4.72h-2.88c-0.027 0.933-0.72 2.213-2.587 2.293-2.107-0.053-2.987-1.653-2.987-4.373 0-4.613 2.053-4.747 3.013-4.8zM16 0c-8.837 0-16 7.163-16 16s7.163 16 16 16v0c8.837 0 16-7.163 16-16s-7.163-16-16-16v0zM16 28.8c-7.071-0.008-12.8-5.741-12.8-12.813 0-7.077 5.737-12.813 12.813-12.813 0.005 0 0.009 0 0.014 0h-0.001c7.071 0.008 12.8 5.741 12.8 12.813 0 7.077-5.737 12.813-12.813 12.813-0.005 0-0.009 0-0.014 0h0.001z">
            </path>
        </symbol>
        <symbol id="search-2" viewBox="0 0 32 32">
            <path fill="none" stroke="#fff" style="stroke: var(--color2, #fff)" stroke-linejoin="round"
                stroke-linecap="round" stroke-miterlimit="4" stroke-width="2.6667"
                d="M14.667 25.333c5.891 0 10.667-4.776 10.667-10.667s-4.776-10.667-10.667-10.667c-5.891 0-10.667 4.776-10.667 10.667s4.776 10.667 10.667 10.667z">
            </path>
            <path fill="none" stroke="#fff" style="stroke: var(--color2, #fff)" stroke-linejoin="round"
                stroke-linecap="round" stroke-miterlimit="4" stroke-width="2.6667" d="M28 28.001l-5.8-5.8"></path>
        </symbol>
        <symbol id="search" viewBox="0 0 32 32">
            <path
                d="M31.008 27.231l-7.58-6.447c-0.784-0.705-1.622-1.029-2.299-0.998 1.789-2.096 2.87-4.815 2.87-7.787 0-6.627-5.373-12-12-12s-12 5.373-12 12 5.373 12 12 12c2.972 0 5.691-1.081 7.787-2.87-0.031 0.677 0.293 1.515 0.998 2.299l6.447 7.58c1.104 1.226 2.907 1.33 4.007 0.23s0.997-2.903-0.23-4.007zM12 20c-4.418 0-8-3.582-8-8s3.582-8 8-8 8 3.582 8 8-3.582 8-8 8z">
            </path>
        </symbol>
        <symbol id="arrow-left2" viewBox="0 0 32 32">
            <path
                d="M12.586 27.414l-10-10c-0.781-0.781-0.781-2.047 0-2.828l10-10c0.781-0.781 2.047-0.781 2.828 0s0.781 2.047 0 2.828l-6.586 6.586h19.172c1.105 0 2 0.895 2 2s-0.895 2-2 2h-19.172l6.586 6.586c0.39 0.39 0.586 0.902 0.586 1.414s-0.195 1.024-0.586 1.414c-0.781 0.781-2.047 0.781-2.828 0z">
            </path>
        </symbol>
        <symbol id="arrow-right2" viewBox="0 0 32 32">
            <path
                d="M19.414 27.414l10-10c0.781-0.781 0.781-2.047 0-2.828l-10-10c-0.781-0.781-2.047-0.781-2.828 0s-0.781 2.047 0 2.828l6.586 6.586h-19.172c-1.105 0-2 0.895-2 2s0.895 2 2 2h19.172l-6.586 6.586c-0.39 0.39-0.586 0.902-0.586 1.414s0.195 1.024 0.586 1.414c0.781 0.781 2.047 0.781 2.828 0z">
            </path>
        </symbol>
        <symbol id="arrow-up" viewBox="0 0 32 32">
            <path
                d="M27.414 12.586l-10-10c-0.781-0.781-2.047-0.781-2.828 0l-10 10c-0.781 0.781-0.781 2.047 0 2.828s2.047 0.781 2.828 0l6.586-6.586v19.172c0 1.105 0.895 2 2 2s2-0.895 2-2v-19.172l6.586 6.586c0.39 0.39 0.902 0.586 1.414 0.586s1.024-0.195 1.414-0.586c0.781-0.781 0.781-2.047 0-2.828z">
            </path>
        </symbol>
        <symbol id="facebook" viewBox="0 0 32 32">
            <path
                d="M21.328 5.312h2.928v-5.088c-0.512-0.064-2.24-0.224-4.256-0.224-4.224 0-7.104 2.656-7.104 7.52v4.48h-4.64v5.68h4.64v14.32h5.696v-14.304h4.464l0.704-5.696h-5.168v-3.92c0-1.648 0.448-2.768 2.736-2.768z">
            </path>
        </symbol>
        <symbol id="instagram" viewBox="0 0 32 32">
            <path
                d="M31.968 9.408c-0.024-1.403-0.292-2.735-0.763-3.968l0.027 0.080c-0.427-1.109-1.058-2.054-1.854-2.83l-0.002-0.002c-0.8-0.8-1.76-1.44-2.832-1.84-1.151-0.448-2.483-0.721-3.875-0.752l-0.013-0c-1.458-0.070-3.167-0.109-4.885-0.109-0.6 0-1.199 0.005-1.797 0.014l0.090-0.001c-4.352 0-4.896 0.016-6.592 0.096-1.712 0.064-2.88 0.352-3.888 0.736-1.072 0.416-2.032 1.040-2.832 1.856-0.816 0.8-1.44 1.76-1.856 2.832-0.443 1.152-0.711 2.485-0.736 3.877l-0 0.011c-0.070 1.458-0.109 3.167-0.109 4.885 0 0.6 0.005 1.199 0.014 1.797l-0.001-0.090c0 4.352 0 4.896 0.080 6.592 0.030 1.405 0.303 2.737 0.779 3.968l-0.027-0.080c0.4 1.072 1.040 2.032 1.856 2.832 0.8 0.816 1.76 1.44 2.832 1.856 1.008 0.384 2.176 0.656 3.872 0.736 1.712 0.080 2.24 0.096 6.592 0.096s4.896-0.016 6.608-0.096c1.397-0.026 2.724-0.294 3.952-0.763l-0.080 0.027c2.16-0.851 3.837-2.528 4.669-4.633l0.019-0.055c0.384-1.024 0.672-2.176 0.736-3.888 0.080-1.696 0.096-2.24 0.096-6.592 0-4.336 0-4.88-0.080-6.592zM29.088 22.48c-0.064 1.552-0.32 2.4-0.544 2.96-0.552 1.401-1.639 2.488-3.004 3.027l-0.036 0.013c-0.56 0.224-1.424 0.48-2.976 0.544-1.68 0.080-2.192 0.096-6.464 0.096-0.465 0.007-1.013 0.011-1.562 0.011-1.724 0-3.439-0.039-5.144-0.116l0.242 0.009c-1.568-0.064-2.4-0.32-2.96-0.544-0.722-0.271-1.337-0.68-1.839-1.199l-0.001-0.001c-0.518-0.5-0.926-1.108-1.189-1.79l-0.011-0.034c-0.336-0.884-0.535-1.905-0.544-2.972l-0-0.004c-0.068-1.463-0.107-3.179-0.107-4.903 0-0.549 0.004-1.097 0.012-1.643l-0.001 0.083c0-4.272 0.016-4.784 0.096-6.464 0.064-1.568 0.32-2.4 0.544-2.976 0.256-0.688 0.656-1.312 1.2-1.824 0.504-0.519 1.118-0.928 1.806-1.189l0.034-0.011c0.56-0.224 1.408-0.48 2.976-0.544 1.68-0.080 2.192-0.096 6.448-0.096 4.288 0 4.8 0 6.464 0.096 1.568 0.064 2.4 0.32 2.976 0.544 0.688 0.256 1.328 0.656 1.84 1.2 0.528 0.512 0.944 1.136 1.2 1.824 0.208 0.576 0.48 1.424 0.544 2.976 0.080 1.68 0.096 2.192 0.096 6.464s-0.016 4.768-0.096 6.464z">
            </path>
            <path
                d="M16.064 7.776c-4.542 0-8.224 3.682-8.224 8.224s3.682 8.224 8.224 8.224v0c4.542 0 8.224-3.682 8.224-8.224s-3.682-8.224-8.224-8.224v0zM16.064 21.328c-2.943 0-5.328-2.385-5.328-5.328s2.385-5.328 5.328-5.328v0c2.943 0 5.328 2.385 5.328 5.328s-2.385 5.328-5.328 5.328v0zM26.528 7.456c0 1.060-0.86 1.92-1.92 1.92s-1.92-0.86-1.92-1.92v0c0-1.060 0.86-1.92 1.92-1.92s1.92 0.86 1.92 1.92v0z">
            </path>
        </symbol>
        <symbol id="github" viewBox="0 0 32 32">
            <path
                d="M16 .395c-8.836 0-16 7.163-16 16 0 7.069 4.585 13.067 10.942 15.182.8.148 1.094-.347 1.094-.77 0-.381-.015-1.642-.022-2.979-4.452.968-5.391-1.888-5.391-1.888-.728-1.849-1.776-2.341-1.776-2.341-1.452-.993.11-.973.11-.973 1.606.113 2.452 1.649 2.452 1.649 1.427 2.446 3.743 1.739 4.656 1.33.143-1.034.558-1.74 1.016-2.14-3.554-.404-7.29-1.777-7.29-7.907 0-1.747.625-3.174 1.649-4.295-.166-.403-.714-2.03.155-4.234 0 0 1.344-.43 4.401 1.64a15.353 15.353 0 0 1 4.005-.539c1.359.006 2.729.184 4.008.539 3.054-2.07 4.395-1.64 4.395-1.64.871 2.204.323 3.831.157 4.234 1.026 1.12 1.647 2.548 1.647 4.295 0 6.145-3.743 7.498-7.306 7.895.574.497 1.085 1.47 1.085 2.963 0 2.141-.019 3.864-.019 4.391 0 .426.288.925 1.099.768C27.421 29.457 32 23.462 32 16.395c0-8.837-7.164-16-16-16z">
            </path>
        </symbol>
        <symbol id="linkedin" viewBox="0 0 32 32">
            <path
                d="M12 12h5.535v2.837h.079c.77-1.381 2.655-2.837 5.464-2.837C28.92 12 30 15.637 30 20.367V30h-5.769v-8.54c0-2.037-.042-4.657-3.001-4.657-3.005 0-3.463 2.218-3.463 4.509V30H12V12zM2 12h6v18H2V12zM8 7a3 3 0 1 1-6 0 3 3 0 0 1 6 0z">
            </path>
        </symbol>
        <symbol id="logo" viewBox="0 0 246 32">
            <path
                d="M172.838 31.865h57.568c8.792 0 15.919-7.127 15.919-15.919v-.027C246.325 7.127 239.198 0 230.406 0h-57.568c-8.792 0-15.919 7.127-15.919 15.919v.028-.001c0 8.792 7.127 15.919 15.919 15.919zM9.099 31.91h7.027V6.234h9.099V0H0v6.216h9.099zm25.315 0h7.027V7.433h.09l8.063 24.459h5.405l8.333-24.459h.09v24.459h7.027V0H59.863l-7.387 20.811h-.09L45.044 0H34.413zM80.306.108h10.541c2.587.004 5.095.332 7.489.947l-.21-.046a16.697 16.697 0 0 1 6.055 2.807l-.046-.032a13.688 13.688 0 0 1 4.046 4.893l.035.08c.955 2.036 1.512 4.421 1.512 6.936 0 .175-.003.348-.008.522l.001-.025a15.187 15.187 0 0 1-1.499 6.92l.04-.091a14.799 14.799 0 0 1-3.919 4.934l-.027.021a17.21 17.21 0 0 1-5.598 3.002l-.123.034c-1.999.657-4.299 1.036-6.688 1.036h-.12.006-11.486zm7.027 25.406h3.737c1.55 0 3.058-.181 4.504-.522l-.132.026a9.53 9.53 0 0 0 3.686-1.614l-.028.019a7.902 7.902 0 0 0 2.394-2.969l.02-.049a10.557 10.557 0 0 0 .9-4.59v.014l.002-.169a8.848 8.848 0 0 0-.926-3.955l.023.052a8.34 8.34 0 0 0-2.35-2.851l-.019-.014a10.365 10.365 0 0 0-3.377-1.667l-.074-.018a15.033 15.033 0 0 0-4.139-.568h-.082.004-4.144zM119.901.108h11.892c1.472.001 2.918.109 4.332.317l-.161-.019c1.4.185 2.668.598 3.82 1.201l-.063-.03A7.209 7.209 0 0 1 142.407 4l.017.027a7.425 7.425 0 0 1 1.035 4.207l.001-.018a6.712 6.712 0 0 1-1.514 4.516l.01-.012a8.244 8.244 0 0 1-3.933 2.526l-.058.014v.054a9.258 9.258 0 0 1 2.917.925l-.052-.024a7.7 7.7 0 0 1 2.202 1.661l.005.005a7.008 7.008 0 0 1 1.399 2.312l.016.049c.314.838.496 1.806.496 2.817v.069-.004a7.649 7.649 0 0 1-1.1 4.251l.019-.034a8.478 8.478 0 0 1-2.755 2.682l-.038.021a11.842 11.842 0 0 1-3.769 1.473l-.078.013c-1.277.286-2.744.45-4.25.45h-13.074zm7.027 12.748h5.128c.555 0 1.096-.066 1.613-.19l-.047.009a4.297 4.297 0 0 0 1.431-.596l-.017.01a3.11 3.11 0 0 0 1.01-1.066l.008-.015c.239-.443.38-.97.38-1.529l-.001-.097v.005a2.96 2.96 0 0 0-.404-1.654l.008.014a3.105 3.105 0 0 0-1.092-1.01l-.016-.008a5.334 5.334 0 0 0-1.563-.509l-.032-.004a8.715 8.715 0 0 0-1.665-.162h-4.776zm0 13.198h6.326c.577 0 1.139-.066 1.679-.19l-.05.01a4.194 4.194 0 0 0 1.519-.64l-.015.009a3.563 3.563 0 0 0 1.099-1.155l.009-.016a3.389 3.389 0 0 0 .425-1.652l-.002-.11v.005l.002-.106a2.83 2.83 0 0 0-.566-1.704l.005.007a3.618 3.618 0 0 0-1.4-1.054l-.024-.009a7.221 7.221 0 0 0-1.761-.491l-.04-.005a13.079 13.079 0 0 0-1.843-.135h-5.319z" />
        </symbol>
        <symbol id="sound_9" viewBox="0 0 41 32">
            <path d="M9.363 27.544h3.24v27.429h-3.24v-27.429z"></path>
            <path d="M15.872 18.304h3.24v27.429h-3.24v-27.429z"></path>
            <path d="M22.38 25.258h3.24v27.429h-3.24v-27.429z"></path>
            <path d="M28.54 13.729h3.24v27.429h-3.24v-27.429z"></path>
        </symbol>
        <symbol id="sound_8" viewBox="0 0 41 32">
            <path d="M9.363 25.3h3.24v27.429h-3.24v-27.429z"></path>
            <path d="M15.872 13.775h3.24v27.429h-3.24v-27.429z"></path>
            <path d="M22.38 20.729h3.24v27.429h-3.24v-27.429z"></path>
            <path d="M28.54 9.199h3.24v27.429h-3.24v-27.429z"></path>
        </symbol>
        <symbol id="sound_7" viewBox="0 0 41 32">
            <path d="M9.363 20.729h3.24v27.429h-3.24v-27.429z"></path>
            <path d="M15.872 9.204h3.24v27.429h-3.24v-27.429z"></path>
            <path d="M22.38 16.157h3.24v27.429h-3.24v-27.429z"></path>
            <path d="M28.54 13.771h3.24v27.429h-3.24v-27.429z"></path>
        </symbol>
        <symbol id="sound_6" viewBox="0 0 41 32">
            <path d="M9.363 16.157h3.24v27.429h-3.24v-27.429z"></path>
            <path d="M15.872 11.489h3.24v27.429h-3.24v-27.429z"></path>
            <path d="M22.38 20.729h3.24v27.429h-3.24v-27.429z"></path>
            <path d="M28.54 18.342h3.24v27.429h-3.24v-27.429z"></path>
        </symbol>
        <symbol id="sound_5" viewBox="0 0 41 32">
            <path d="M9.363 18.443h3.24v27.429h-3.24v-27.429z"></path>
            <path d="M15.872 16.061h3.24v27.429h-3.24v-27.429z"></path>
            <path d="M22.38 25.3h3.24v27.429h-3.24v-27.429z"></path>
            <path d="M28.54 22.914h3.24v27.429h-3.24v-27.429z"></path>
        </symbol>
        <symbol id="sound_4" viewBox="0 0 41 32">
            <path d="M9.363 20.729h3.24v27.429h-3.24v-27.429z"></path>
            <path d="M15.872 22.918h3.24v27.429h-3.24v-27.429z"></path>
            <path d="M22.38 25.3h3.24v27.429h-3.24v-27.429z"></path>
            <path d="M28.54 18.342h3.24v27.429h-3.24v-27.429z"></path>
        </symbol>
        <symbol id="sound_3" viewBox="0 0 41 32">
            <path d="M9.363 25.3h3.24v27.429h-3.24v-27.429z"></path>
            <path d="M15.872 18.346h3.24v27.429h-3.24v-27.429z"></path>
            <path d="M22.38 23.015h3.24v27.429h-3.24v-27.429z"></path>
            <path d="M28.54 13.771h3.24v27.429h-3.24v-27.429z"></path>
        </symbol>
        <symbol id="sound_2" viewBox="0 0 41 32">
            <path d="M9.363 23.015h3.24v27.429h-3.24v-27.429z"></path>
            <path d="M15.872 13.775h3.24v27.429h-3.24v-27.429z"></path>
            <path d="M22.38 18.443h3.24v27.429h-3.24v-27.429z"></path>
            <path d="M28.54 9.199h3.24v27.429h-3.24v-27.429z"></path>
        </symbol>
        <symbol id="sound_1" viewBox="0 0 41 32">
            <path d="M9.363 18.443h3.24v27.429h-3.24v-27.429z"></path>
            <path d="M15.872 9.204h3.24v27.429h-3.24v-27.429z"></path>
            <path d="M22.38 20.729h3.24v27.429h-3.24v-27.429z"></path>
            <path d="M28.54 13.771h3.24v27.429h-3.24v-27.429z"></path>
        </symbol>
        <symbol id="sound_off" viewBox="0 0 30 32">
            <path fill="#7988a3" style="fill: var(--color3, #7988a3)"
                d="M8.815 23.556v-15.111h2.519v15.111h-2.519zM13.852 28.593v-25.185h2.518v25.185h-2.518zM3.778 18.519v-5.037h2.519v5.037h-2.519zM18.889 23.556v-15.111h2.519v15.111h-2.519zM23.926 18.519v-5.037h2.519v5.037h-2.519z">
            </path>
        </symbol>
        <symbol id="sound" viewBox="0 0 32 32">
            <path d="M7.283 15.929h2.52v8.96h-2.52v-8.96z"></path>
            <path d="M12.345 10.681h2.52v14.208h-2.52v-14.208z"></path>
            <path d="M17.407 15.929h2.52v8.96h-2.52v-8.96z"></path>
            <path d="M22.198 7.191h2.52v17.698h-2.52v-17.698z"></path>
        </symbol>
        <symbol id="flower" viewBox="0 0 28 32">
            <path
                d="M13.292 32c1.458 0 2.583-1.459 2.583-3.536 0-1.017-0.375-2.652-1.083-4.95s-1.083-4.42-1.083-6.32v-0.575c1.833 1.238 3.083 2.254 3.667 2.961 1.208 1.459 4.375 5.613 6.833 5.613 1.458 0 2.458-1.105 2.458-2.431 0-0.751-0.292-1.414-0.875-2.077-1.167-1.282-3.75-1.901-6.792-2.608-1.542-0.354-3.167-1.017-4.958-2.077 1.833-1.061 3.5-1.768 5.083-2.122 1.542-0.354 2.917-0.707 4.083-1.105 2.417-0.84 3.458-2.122 3.458-3.624 0-1.37-1-2.343-2.333-2.343-0.833 0-1.625 0.265-2.417 0.84-0.75 0.53-2.125 1.945-4.083 4.243-2.042 2.077-1.75 1.901-4.125 3.492 0-2.122 0.375-4.376 1.125-6.718s1.125-4.066 1.125-5.127c0-2.122-1.125-3.536-2.583-3.536-1.5 0-2.583 1.503-2.583 3.536 0 1.547 1.042 4.862 1.708 6.983 0.333 1.061 0.458 2.519 0.458 4.287v0.575c-1.667-1.061-2.958-2.166-3.875-3.271-1.833-2.21-4.417-5.304-6.625-5.304-1.458 0-2.458 1.017-2.458 2.343 0 0.751 0.292 1.459 0.833 2.122 1.083 1.326 3.583 1.901 6.708 2.608 1.583 0.354 3.292 1.061 5.083 2.122-1.75 1.061-3.417 1.768-4.917 2.077-1.542 0.309-2.917 0.707-4.125 1.061-2.458 0.707-3.583 2.166-3.583 3.624 0 1.326 1.083 2.431 2.417 2.431 2.167 0 4.208-2.431 6.292-4.906 1.042-1.238 2.417-2.475 4.25-3.669 0 2.298-0.375 4.508-1.125 6.807-0.75 2.254-1.125 3.934-1.125 5.039 0 1.989 1.042 3.536 2.583 3.536z">
            </path>
        </symbol>
        <symbol id="switch" viewBox="0 0 68 32">
            <path fill="none" stroke="#bbc6da" style="stroke: var(--color2, #bbc6da)" stroke-linejoin="miter"
                stroke-linecap="butt" stroke-miterlimit="4" stroke-width="2"
                d="M17.016 1h34c8.284 0 15 6.716 15 15s-6.716 15-15 15h-34c-8.284 0-15-6.716-15-15s6.716-15 15-15z">
            </path>
            <path fill="#1e2eb8" style="fill: var(--color1, #1e2eb8)"
                d="M17.016 0c8.837 0 16 7.163 16 16s-7.163 16-16 16c-8.837 0-16-7.163-16-16s7.163-16 16-16z"></path>
        </symbol>
        <symbol id="play" viewBox="0 0 24 32">
            <path d="M24 16l-24 13.857v-27.713l24 13.856z"></path>
        </symbol>
        <symbol id="pause" viewBox="0 0 32 32">
            <path d="M4 4h10v24h-10zM18 4h10v24h-10z"></path>
        </symbol>

        <symbol id="arrow-left" viewBox="0 0 24 24">
            <path d="M15.422 16.594l-1.406 1.406-6-6 6-6 1.406 1.406-4.594 4.594z"></path>
        </symbol>

        <symbol id="arrow-right" viewBox="0 0 24 24">
            <path d="M8.578 16.594l4.594-4.594-4.594-4.594 1.406-1.406 6 6-6 6z"></path>
        </symbol>

        <symbol id="arrow-up" viewBox="0 0 24 24">
            <path
                d="M12.314 47.255a.999.999 0 0 1-.707-1.707l21.92-21.92-21.92-21.92A.999.999 0 1 1 13.021.294L35.648 22.92a.999.999 0 0 1 0 1.414L13.021 46.962a.999.999 0 0 1-.707.293z" />
        </symbol>

        <symbol id="arrow-down" viewBox="0 0 24 24">
            <path
                d="M12.314 47.255a.999.999 0 0 1-.707-1.707l21.92-21.92-21.92-21.92A.999.999 0 1 1 13.021.294L35.648 22.92a.999.999 0 0 1 0 1.414L13.021 46.962a.999.999 0 0 1-.707.293z" />
        </symbol>

        <symbol id="plus" viewBox="0 0 24 24">
            <path stroke="#000" stroke-linecap="round" stroke-linejoin="round" stroke-width="2" d="M4 12h16m-8-8v16" />
        </symbol>

        <symbol id="minus" viewBox="0 0 24 24">
            <path stroke="#000" stroke-linecap="round" stroke-linejoin="round" stroke-width="2" d="M6 12h12" />
        </symbol>

    </defs>
</svg>