<svg class="svg-icon" style="width: 1.25em; height: 1em;vertical-align: middle;fill: currentColor;overflow: hidden;" viewBox="0 0 1280 1024" version="1.1" xmlns="http://www.w3.org/2000/svg"><path d="M1267.631681 916.193987l-137.999094-106.6593C1184.832225 721.595265 1215.99202 619.355935 1215.99202 511.99664c0-190.658749-95.459374-367.157591-255.298325-472.056902-22.339853-14.659904-52.359656-8.479944-67.01956 13.899909-14.679904 22.339853-8.439945 52.359656 13.899909 67.01956 132.53913 86.979429 211.638611 233.19847 211.638611 391.157433 0 85.559439-23.919843 167.178903-66.439564 238.118437l-76.2395-58.919613C1006.973392 637.355817 1023.99328 576.116219 1023.99328 511.99664c0-126.179172-64.119579-244.178398-171.538874-312.31795-22.379853-14.179907-52.059658-7.59995-66.239566 14.819902-14.179907 22.399853-7.55995 52.059658 14.819903 66.259566C880.534221 331.177827 927.99391 418.877251 927.99391 511.99664c0 42.419722-10.059934 83.139454-28.399814 119.759214l-79.11948-61.159599c6.759956-18.699877 11.519924-38.13975 11.519924-58.599615 0-63.759582-35.05977-122.659195-91.539399-153.758991-23.159848-12.659917-52.379656-4.319972-65.219572 18.899876-12.779916 23.219848-4.319972 52.399656 18.899876 65.219572 23.519846 12.919915 38.239749 36.359761 40.799732 62.119592L575.99622 381.637496V176.038845c0-42.919718-51.919659-63.95958-81.939462-33.939778l-99.419348 99.399348L90.939403 6.739956C76.979495-4.099973 56.859627-1.59999 46.019698 12.359919L6.739956 62.899587C-4.099973 76.839496-1.59999 96.939364 12.359919 107.799293l1176.712278 909.454031c13.959908 10.859929 34.059776 8.339945 44.919705-5.619963l39.279742-50.539668c10.819929-13.939909 8.319945-34.039777-5.639963-44.899706zM63.99958 367.997585v287.99811c0 26.499826 21.479859 47.999685 47.999685 47.999685h204.11866l177.938833 177.898833c30.059803 30.059803 81.939462 8.939941 81.939462-33.939778V705.195372L87.519426 327.67785C73.719516 336.097794 63.99958 350.637699 63.99958 367.997585z"  /></svg>