<?xml version="1.0" encoding="UTF-8"?>
<svg id="logo3" data-name="Шар 2" xmlns="http://www.w3.org/2000/svg" viewBox="0 0 8.63 7.67">
  <defs>
    <style>
      .cls-1 {
        fill: #1d1d1b;
      }
    </style>
  </defs>
  <g id="_Шар_1-2" data-name="Шар 1">
    <g id="BM2">
      <g id="M">
        <polygon class="cls-1" points="5.04 5.77 5.04 5.92 3.59 5.92 3.59 5.77 4.21 5.77 4.21 5.31 4.42 5.31 4.42 5.77 5.04 5.77"/>
        <polygon class="cls-1" points="6.05 4.49 5.22 4.49 4.4 1.94 4.4 1.93 4.4 1.93 4.4 1.94 4.4 4.47 4.21 4.47 4.21 1.93 3.6 1.93 3.6 1.78 5.21 1.78 5.21 1.83 6.05 4.49"/>
        <polygon class="cls-1" points="4.4 1.93 4.4 1.94 4.4 1.93 4.4 1.93"/>
        <polygon class="cls-1" points="4.4 1.93 4.4 1.94 4.4 1.93 4.4 1.93"/>
        <polygon class="cls-1" points="7.21 1.92 7.21 1.93 7.19 1.98 7.19 1.92 7.21 1.92"/>
        <rect class="cls-1" x="7.2" y="1.92" width=".01" height=".02" transform="translate(3.1 8.15) rotate(-71.55)"/>
        <polygon class="cls-1" points="8.62 1.79 8.62 1.93 7.99 1.93 7.99 4.47 7.19 4.47 7.19 1.98 7.21 1.93 7.21 1.92 7.19 1.92 7.19 1.98 6.39 4.48 6.16 4.49 7.01 1.78 7.26 1.79 8.62 1.79"/>
        <polygon class="cls-1" points="7.21 1.92 7.21 1.93 7.19 1.98 7.19 1.92 7.21 1.92"/>
        <polygon class="cls-1" points="8.63 5.76 8.63 5.92 6.55 5.92 6.55 5.76 7.18 5.76 7.18 5.28 7.99 5.28 7.99 5.76 8.63 5.76"/>
        <polygon class="cls-1" points="5.94 5.92 5.69 5.92 5.5 5.28 6.14 5.28 5.94 5.92"/>
      </g>
      <g id="B">
        <path class="cls-1" d="m4.27,5.31c-.08.18-.22.33-.4.44-.17.11-.38.17-.6.17h-1.19s-2.07,0-2.07,0v-.1l.63-.04v-.44h.81v.44l.63.02h.88s.03-.01.04-.02c.11-.04.2-.11.27-.19.07-.08.12-.18.14-.28h.85Z"/>
        <path class="cls-1" d="m4.23,4.47h-.85c-.02-.12-.07-.23-.14-.32-.07-.09-.16-.16-.27-.21-.01,0-.03,0-.04,0h-.77s-.11-.02-.11-.02v-.14s.12,0,.12,0h.76s.03-.01.04-.02c.11-.05.2-.12.27-.21.07-.09.12-.2.14-.32h0s0-.53,0-.53c0-.15-.04-.3-.12-.43-.04-.06-.08-.12-.13-.18-.05-.05-.1-.1-.15-.12-.01,0-.03,0-.04,0l-.88-.02h-.58v2.6h-.8V1.97l.03-.04h0s-.69,0-.69,0v-.15s.67,0,.67,0h.06s.74,0,.74,0h.58s1.19.02,1.19.02c.44,0,.81.28.97.69,0,0,.16.43,0,.77h0c-.08.19-.22.34-.37.45-.08.05-.16.1-.25.13.09.03.17.08.25.13.17.12.31.29.39.5Z"/>
        <polygon class="cls-1" points=".68 1.93 .67 1.97 .67 1.93 .68 1.93"/>
        <polygon class="cls-1" points=".69 1.93 .67 1.97 .68 1.93 .69 1.93 .69 1.93"/>
        <polygon class="cls-1" points="1.47 1.78 1.47 1.78 .73 1.78 .67 1.78 1.47 1.78"/>
      </g>
      <rect class="cls-1" x="3.53" width=".07" height="4.47"/>
      <rect class="cls-1" x="3.53" y="5.31" width=".07" height="2.37"/>
      <g id="R">
        <polygon class="cls-1" points="2.05 4.63 2.05 5.03 1.99 4.99 1.99 4.99 1.88 4.91 1.88 4.89 1.93 4.89 1.99 4.92 1.99 4.68 1.55 4.68 1.55 5.1 1.48 5.1 1.48 4.63 2.05 4.63"/>
        <polygon class="cls-1" points="1.94 4.72 1.94 4.85 1.75 4.85 1.75 5.1 1.69 5.1 1.69 4.8 1.88 4.8 1.88 4.77 1.65 4.77 1.65 5.1 1.59 5.1 1.59 4.72 1.94 4.72"/>
        <polygon class="cls-1" points="2 5.1 2.05 5.1 2.05 5.07 1.84 4.89 1.79 4.89 1.79 4.92 2 5.1"/>
        <polygon class="cls-1" points="1.87 5.1 1.94 5.1 1.94 5.09 1.81 4.98 1.79 4.98 1.79 5.04 1.87 5.1"/>
      </g>
      <g id="N">
        <rect class="cls-1" x="3.35" y="4.65" width=".05" height=".47" transform="translate(0 0) rotate(-.09)"/>
        <rect class="cls-1" x="3.25" y="4.65" width=".05" height=".38" transform="translate(0 0) rotate(-.09)"/>
        <rect class="cls-1" x="3.15" y="4.65" width=".05" height=".3" transform="translate(0 0) rotate(-.09)"/>
        <rect class="cls-1" x="3.06" y="4.81" width=".05" height=".3" transform="translate(0 0) rotate(-.09)"/>
        <rect class="cls-1" x="2.95" y="4.74" width=".05" height=".38" transform="translate(0 0) rotate(-.09)"/>
        <rect class="cls-1" x="2.85" y="4.65" width=".05" height=".47" transform="translate(0 0) rotate(-.09)"/>
      </g>
      <g id="B-2" data-name="B">
        <polygon class="cls-1" points="1.37 5.06 1.37 5.12 .91 5.12 .91 4.69 .88 4.69 .88 5.12 .82 5.12 .82 4.64 .97 4.64 .97 5.06 1.31 5.06 1.31 4.95 1.09 4.95 1.09 4.98 1.28 4.98 1.28 5.03 1.01 5.03 1.01 4.9 1.37 4.9 1.37 4.95 1.37 4.95 1.37 5.06 1.37 5.06"/>
        <polygon class="cls-1" points="1.37 4.64 1.37 4.81 1.37 4.81 1.37 4.87 1.01 4.87 1.01 4.72 1.28 4.72 1.28 4.78 1.09 4.78 1.09 4.81 1.31 4.81 1.31 4.69 1.01 4.69 1.01 4.64 1.37 4.64"/>
      </g>
      <g id="D">
        <polygon class="cls-1" points="4.08 4.62 4.08 5.11 3.52 5.11 3.52 5.05 4.02 5.05 4.02 4.68 3.52 4.68 3.52 4.62 4.08 4.62"/>
        <polygon class="cls-1" points="3.99 4.71 3.99 5.02 3.52 5.02 3.52 4.97 3.93 4.97 3.93 4.77 3.52 4.77 3.52 4.71 3.99 4.71"/>
        <polygon class="cls-1" points="3.87 4.8 3.87 4.93 3.52 4.93 3.52 4.89 3.83 4.89 3.83 4.84 3.52 4.84 3.52 4.8 3.87 4.8"/>
      </g>
      <g id="A">
        <polygon class="cls-1" points="2.73 4.64 2.73 5.11 2.67 5.11 2.67 4.69 2.22 4.69 2.23 5.11 2.17 5.11 2.17 4.64 2.73 4.64"/>
        <polygon class="cls-1" points="2.63 4.73 2.63 5.11 2.57 5.11 2.57 4.78 2.33 4.78 2.33 5.11 2.27 5.11 2.27 4.73 2.63 4.73"/>
        <path class="cls-1" d="m2.37,4.82v.12s.16,0,.16,0v-.12s-.16,0-.16,0Zm.1.09h-.04s0-.05,0-.05h.04s0,.05,0,.05Z"/>
        <polygon class="cls-1" points="2.54 4.98 2.54 5.11 2.48 5.11 2.48 5.03 2.43 5.03 2.43 5.11 2.38 5.11 2.37 4.98 2.54 4.98"/>
      </g>
      <g id="Z">
        <rect class="cls-1" x="6.14" y="4.66" width=".69" height=".04"/>
        <rect class="cls-1" x="6.14" y="4.75" width=".56" height=".04"/>
        <rect class="cls-1" x="6.14" y="4.84" width=".45" height=".04"/>
        <rect class="cls-1" x="6.38" y="4.92" width=".45" height=".04"/>
        <rect class="cls-1" x="6.27" y="5.01" width=".56" height=".04"/>
        <rect class="cls-1" x="6.14" y="5.1" width=".69" height=".04"/>
      </g>
      <g id="M-2" data-name="M">
        <polygon class="cls-1" points="5.11 4.74 5.11 5.14 5.03 5.14 5.03 4.79 4.98 4.79 4.98 5.14 4.9 5.14 4.9 4.74 5.11 4.74"/>
        <polygon class="cls-1" points="5.23 4.66 5.23 5.14 5.15 5.14 5.15 4.71 4.59 4.71 4.59 5.14 4.52 5.14 4.52 4.66 5.23 4.66"/>
        <polygon class="cls-1" points="4.85 4.74 4.85 5.14 4.77 5.14 4.77 4.79 4.72 4.79 4.72 5.14 4.65 5.14 4.65 4.74 4.85 4.74"/>
      </g>
      <g id="A-2" data-name="A">
        <polygon class="cls-1" points="6.05 4.65 6.05 5.14 5.98 5.14 5.97 4.7 5.41 4.71 5.41 5.14 5.34 5.14 5.34 4.65 6.05 4.65"/>
        <polygon class="cls-1" points="5.92 4.74 5.92 5.14 5.85 5.14 5.85 4.8 5.55 4.8 5.55 5.14 5.47 5.14 5.47 4.75 5.92 4.74"/>
        <path class="cls-1" d="m5.6,4.84v.13s.21,0,.21,0v-.13s-.21,0-.21,0Zm.13.09h-.05s0-.05,0-.05h.05s0,.05,0,.05Z"/>
        <polygon class="cls-1" points="5.81 5 5.81 5.14 5.73 5.14 5.73 5.05 5.68 5.05 5.68 5.14 5.6 5.14 5.6 5 5.81 5"/>
      </g>
      <g id="M-3" data-name="M">
        <polygon class="cls-1" points="7.04 4.73 7.63 4.73 7.63 4.78 7.11 4.78 7.11 4.82 7.63 4.82 7.63 4.87 7.04 4.87 7.04 4.73"/>
        <polygon class="cls-1" points="6.92 4.65 7.63 4.65 7.63 4.7 7 4.7 7 5.09 7.63 5.09 7.63 5.14 6.92 5.14 6.92 4.65"/>
        <polygon class="cls-1" points="7.04 4.91 7.63 4.91 7.63 4.96 7.11 4.96 7.11 5 7.63 5 7.63 5.05 7.04 5.05 7.04 4.91"/>
      </g>
      <polygon class="cls-1" points="3.61 1.78 .57 1.78 1.11 1.86 3.61 1.87 3.61 1.78"/>
    </g>
  </g>
</svg>