<?xml version="1.0" encoding="UTF-8"?>
<svg id="logo1" data-name="Шар 2" xmlns="http://www.w3.org/2000/svg" viewBox="0 0 17.78 10.27">
  <defs>
    <style>
      .cls-1 {
        font-family: CopperplateGothic-Bold, 'Copperplate Gothic Bold';
        font-size: 3px;
        font-weight: 700;
      }

      .cls-1, .cls-2 {
        fill: #1d1d1b;
      }
    </style>
  </defs>
  <g id="_Шар_1-2" data-name="Шар 1">
    <g id="Logo_BM" data-name="Logo BM">
      <text class="cls-1" transform="translate(2.44 5.68)"><tspan x="0" y="0">BRAND</tspan></text>
      <g id="M">
        <polygon class="cls-2" points="10.94 .46 10.94 2.78 10.64 2.78 10.64 .75 10.43 .75 10.43 2.78 10.14 2.78 10.14 .46 10.94 .46"/>
        <polygon class="cls-2" points="11.41 0 11.41 2.78 11.12 2.78 11.12 .29 8.89 .29 8.89 2.78 8.6 2.78 8.6 0 11.41 0"/>
        <polygon class="cls-2" points="9.92 .46 9.92 2.78 9.63 2.78 9.63 .75 9.41 .75 9.41 2.78 9.12 2.78 9.12 .46 9.92 .46"/>
      </g>
      <g id="B">
        <polygon class="cls-2" points="8.89 2.49 8.89 2.78 6.6 2.78 6.6 .29 6.47 .29 6.47 2.78 6.17 2.78 6.17 0 6.91 0 6.91 2.49 8.59 2.49 8.59 1.83 7.49 1.83 7.49 1.97 8.46 1.97 8.46 2.27 7.12 2.27 7.12 1.54 8.89 1.54 8.89 1.8 8.89 1.8 8.89 2.49 8.89 2.49"/>
        <polygon class="cls-2" points="8.89 0 8.89 1.04 8.89 1.04 8.89 1.33 7.12 1.33 7.12 .52 8.46 .52 8.46 .81 7.49 .81 7.49 1.04 8.59 1.04 8.59 .29 7.12 .29 7.12 0 8.89 0"/>
      </g>
      <g id="Z">
        <rect class="cls-2" x="9.27" y="6.65" width="3.93" height=".3"/>
        <rect class="cls-2" x="9.27" y="7.33" width="3.19" height=".3"/>
        <rect class="cls-2" x="9.27" y="8" width="2.56" height=".3"/>
        <rect class="cls-2" x="10.64" y="8.59" width="2.56" height=".3"/>
        <rect class="cls-2" x="10.01" y="9.27" width="3.19" height=".3"/>
        <rect class="cls-2" x="9.28" y="9.94" width="3.93" height=".3"/>
      </g>
      <g id="M-2" data-name="M">
        <polygon class="cls-2" points="3.38 7.23 3.38 10.26 2.95 10.26 2.95 7.6 2.65 7.6 2.65 10.26 2.22 10.26 2.22 7.23 3.38 7.23"/>
        <polygon class="cls-2" points="4.06 6.62 4.06 10.26 3.63 10.26 3.63 7.01 .42 7.01 .42 10.26 0 10.26 0 6.62 4.06 6.62"/>
        <polygon class="cls-2" points="1.91 7.23 1.91 10.26 1.48 10.26 1.48 7.6 1.18 7.6 1.18 10.26 .75 10.26 .75 7.23 1.91 7.23"/>
      </g>
      <g id="A">
        <polygon class="cls-2" points="8.76 6.61 8.77 10.25 8.35 10.25 8.34 6.99 5.13 7 5.14 10.26 4.71 10.26 4.7 6.62 8.76 6.61"/>
        <polygon class="cls-2" points="8.03 7.3 8.03 10.25 7.6 10.25 7.6 7.69 5.89 7.69 5.9 10.25 5.47 10.26 5.46 7.3 8.03 7.3"/>
        <path class="cls-2" d="m6.2,7.99v.96s1.18,0,1.18,0v-.96s-1.18,0-1.18,0Zm.75.67h-.31s0-.37,0-.37h.31s0,.37,0,.37Z"/>
        <polygon class="cls-2" points="7.38 9.23 7.39 10.26 6.96 10.26 6.95 9.6 6.64 9.6 6.64 10.26 6.21 10.26 6.21 9.24 7.38 9.23"/>
      </g>
      <g id="E">
        <polygon class="cls-2" points="14.42 7.21 17.77 7.21 17.77 7.6 14.84 7.6 14.84 7.87 17.77 7.87 17.77 8.26 14.42 8.26 14.42 7.21"/>
        <polygon class="cls-2" points="13.75 6.6 17.78 6.6 17.78 6.98 14.18 6.98 14.18 9.88 17.78 9.88 17.78 10.27 13.75 10.27 13.75 6.6"/>
        <polygon class="cls-2" points="14.42 8.54 17.77 8.54 17.77 8.93 14.84 8.93 14.84 9.2 17.77 9.2 17.77 9.59 14.42 9.59 14.42 8.54"/>
      </g>
    </g>
  </g>
</svg>