<?xml version="1.0" encoding="UTF-8"?>
<svg id="logo2" data-name="Шар 2" xmlns="http://www.w3.org/2000/svg" viewBox="0 0 9.36 7.67">
  <defs>
    <style>
      .cls-1 {
        fill: #1d1d1b;
      }
    </style>
  </defs>
  <g id="_Шар_1-2" data-name="Шар 1">
    <g id="BM">
      <g id="M">
        <polygon class="cls-1" points="5.78 5.76 5.78 5.92 4.33 5.92 4.33 5.76 4.95 5.76 4.95 5.28 5.16 5.28 5.16 5.76 5.78 5.76"/>
        <polygon class="cls-1" points="6.79 4.49 5.96 4.48 5.14 1.93 5.14 1.92 5.14 1.92 5.14 1.93 5.14 4.47 4.95 4.47 4.95 1.92 4.34 1.92 4.34 1.78 5.95 1.78 5.95 1.83 6.79 4.49"/>
        <polygon class="cls-1" points="5.14 1.92 5.14 1.93 5.14 1.92 5.14 1.92"/>
        <polygon class="cls-1" points="5.14 1.92 5.14 1.93 5.14 1.92 5.14 1.92"/>
        <polygon class="cls-1" points="7.95 1.92 7.95 1.93 7.93 1.98 7.93 1.92 7.95 1.92"/>
        <rect class="cls-1" x="7.93" y="1.92" width=".01" height=".02" transform="translate(3.6 8.85) rotate(-71.57)"/>
        <polygon class="cls-1" points="9.35 1.79 9.35 1.93 8.73 1.93 8.73 4.47 7.93 4.47 7.93 1.98 7.95 1.93 7.95 1.92 7.93 1.92 7.93 1.98 7.12 4.48 6.89 4.49 7.74 1.78 7.99 1.79 9.35 1.79"/>
        <polygon class="cls-1" points="7.95 1.92 7.95 1.93 7.93 1.98 7.93 1.92 7.95 1.92"/>
        <polygon class="cls-1" points="9.36 5.76 9.36 5.92 7.29 5.92 7.29 5.76 7.92 5.76 7.92 5.28 8.73 5.28 8.73 5.76 9.36 5.76"/>
        <polygon class="cls-1" points="6.68 5.92 6.43 5.92 6.23 5.28 6.88 5.28 6.68 5.92"/>
      </g>
      <g id="B">
        <path class="cls-1" d="m4.26,5.28c-.08.2-.22.37-.4.49-.17.12-.38.18-.6.18h-1.19s-2.07,0-2.07,0v-.11l.63-.05v-.48h.81v.48l.63.02h.88s.03-.01.04-.02c.11-.05.2-.12.27-.21.07-.09.12-.2.14-.31h.85Z"/>
        <path class="cls-1" d="m4.27,4.47h-.9c-.02-.12-.07-.23-.14-.32-.07-.09-.16-.16-.27-.21-.01,0-.03,0-.04,0h-.77s-.11-.02-.11-.02v-.14s.12,0,.12,0h.76s.03-.01.04-.02c.11-.05.2-.12.27-.21.07-.09.12-.2.14-.32h0s0-.53,0-.53c0-.15-.04-.3-.12-.43-.04-.06-.08-.12-.13-.18-.05-.05-.1-.1-.15-.12-.01,0-.03,0-.04,0l-.88-.02h-.58v2.6h-.8V1.97l.03-.04h0s-.69,0-.69,0v-.15h.73s.74,0,.74,0h.58s1.19.02,1.19.02c.44,0,.81.28.97.69,0,0,.16.44,0,.77h0c-.08.19-.22.34-.37.45-.08.05-.16.1-.25.13.09.03.17.08.25.13.17.12.35.29.43.5Z"/>
        <polygon class="cls-1" points=".68 1.92 .67 1.97 .67 1.92 .68 1.92"/>
        <polygon class="cls-1" points=".69 1.93 .67 1.97 .68 1.92 .69 1.92 .69 1.93"/>
        <polygon class="cls-1" points="1.47 1.78 1.47 1.78 .73 1.78 .67 1.78 1.47 1.78"/>
      </g>
      <rect class="cls-1" x="4.27" width=".07" height="4.47"/>
      <rect class="cls-1" x="4.26" y="5.28" width=".07" height="2.39"/>
      <g id="R">
        <polygon class="cls-1" points="2.42 4.63 2.42 5.03 2.35 4.99 2.35 4.99 2.24 4.91 2.24 4.89 2.29 4.89 2.35 4.92 2.35 4.68 1.87 4.68 1.87 5.1 1.8 5.1 1.8 4.63 2.42 4.63"/>
        <polygon class="cls-1" points="2.3 4.72 2.3 4.85 2.1 4.85 2.1 5.1 2.03 5.1 2.03 4.8 2.24 4.8 2.24 4.77 1.98 4.77 1.98 5.1 1.92 5.1 1.92 4.72 2.3 4.72"/>
        <polygon class="cls-1" points="2.37 5.1 2.42 5.1 2.42 5.07 2.19 4.89 2.14 4.89 2.14 4.92 2.37 5.1"/>
        <polygon class="cls-1" points="2.22 5.1 2.3 5.1 2.3 5.09 2.16 4.98 2.14 4.98 2.14 5.04 2.22 5.1"/>
      </g>
      <g id="N">
        <rect class="cls-1" x="3.84" y="4.65" width=".05" height=".47" transform="translate(0 0) rotate(-.1)"/>
        <rect class="cls-1" x="3.73" y="4.65" width=".05" height=".38" transform="translate(0 0) rotate(-.1)"/>
        <rect class="cls-1" x="3.62" y="4.65" width=".05" height=".3" transform="translate(0 0) rotate(-.1)"/>
        <rect class="cls-1" x="3.52" y="4.81" width=".05" height=".3" transform="translate(0 0) rotate(-.1)"/>
        <rect class="cls-1" x="3.41" y="4.74" width=".05" height=".38" transform="translate(0 0) rotate(-.1)"/>
        <rect class="cls-1" x="3.29" y="4.65" width=".05" height=".47" transform="translate(0 0) rotate(-.1)"/>
      </g>
      <g id="B-2" data-name="B">
        <polygon class="cls-1" points="1.67 5.06 1.67 5.12 1.17 5.12 1.17 4.69 1.15 4.69 1.15 5.12 1.08 5.12 1.08 4.64 1.24 4.64 1.24 5.06 1.61 5.06 1.61 4.95 1.37 4.95 1.37 4.98 1.58 4.98 1.58 5.03 1.29 5.03 1.29 4.9 1.67 4.9 1.67 4.95 1.67 4.95 1.67 5.06 1.67 5.06"/>
        <polygon class="cls-1" points="1.67 4.64 1.67 4.81 1.67 4.81 1.67 4.87 1.29 4.87 1.29 4.72 1.58 4.72 1.58 4.78 1.37 4.78 1.37 4.81 1.61 4.81 1.61 4.69 1.29 4.69 1.29 4.64 1.67 4.64"/>
      </g>
      <g id="D">
        <polygon class="cls-1" points="4.63 4.62 4.63 5.11 4.02 5.11 4.02 5.05 4.57 5.05 4.57 4.68 4.02 4.68 4.02 4.62 4.63 4.62"/>
        <polygon class="cls-1" points="4.54 4.71 4.54 5.02 4.02 5.02 4.02 4.97 4.47 4.97 4.47 4.77 4.02 4.77 4.02 4.71 4.54 4.71"/>
        <polygon class="cls-1" points="4.41 4.8 4.41 4.93 4.02 4.93 4.02 4.89 4.36 4.89 4.36 4.84 4.02 4.84 4.02 4.8 4.41 4.8"/>
      </g>
      <g id="A">
        <polygon class="cls-1" points="3.16 4.64 3.16 5.11 3.1 5.11 3.1 4.69 2.61 4.69 2.61 5.11 2.55 5.11 2.55 4.64 3.16 4.64"/>
        <polygon class="cls-1" points="3.05 4.73 3.05 5.11 2.99 5.11 2.99 4.78 2.73 4.78 2.73 5.11 2.66 5.11 2.66 4.73 3.05 4.73"/>
        <path class="cls-1" d="m2.77,4.82v.12s.18,0,.18,0v-.12s-.18,0-.18,0Zm.11.09h-.05s0-.05,0-.05h.05s0,.05,0,.05Z"/>
        <polygon class="cls-1" points="2.95 4.98 2.95 5.11 2.89 5.11 2.89 5.03 2.84 5.03 2.84 5.11 2.78 5.11 2.78 4.98 2.95 4.98"/>
      </g>
      <g id="Z">
        <rect class="cls-1" x="6.78" y="4.66" width=".69" height=".04"/>
        <rect class="cls-1" x="6.78" y="4.75" width=".56" height=".04"/>
        <rect class="cls-1" x="6.78" y="4.84" width=".45" height=".04"/>
        <rect class="cls-1" x="7.02" y="4.92" width=".45" height=".04"/>
        <rect class="cls-1" x="6.91" y="5.01" width=".56" height=".04"/>
        <rect class="cls-1" x="6.78" y="5.1" width=".69" height=".04"/>
      </g>
      <g id="M-2" data-name="M">
        <polygon class="cls-1" points="5.75 4.74 5.75 5.14 5.68 5.14 5.68 4.79 5.62 4.79 5.62 5.14 5.55 5.14 5.55 4.74 5.75 4.74"/>
        <polygon class="cls-1" points="5.87 4.66 5.87 5.14 5.8 5.14 5.8 4.71 5.24 4.71 5.24 5.14 5.16 5.14 5.16 4.66 5.87 4.66"/>
        <polygon class="cls-1" points="5.5 4.74 5.5 5.14 5.42 5.14 5.42 4.79 5.37 4.79 5.37 5.14 5.29 5.14 5.29 4.74 5.5 4.74"/>
      </g>
      <g id="A-2" data-name="A">
        <polygon class="cls-1" points="6.69 4.65 6.7 5.14 6.62 5.14 6.62 4.7 6.06 4.71 6.06 5.14 5.99 5.14 5.98 4.65 6.69 4.65"/>
        <polygon class="cls-1" points="6.57 4.74 6.57 5.14 6.49 5.14 6.49 4.8 6.19 4.8 6.19 5.14 6.12 5.14 6.12 4.75 6.57 4.74"/>
        <path class="cls-1" d="m6.25,4.84v.13s.21,0,.21,0v-.13s-.21,0-.21,0Zm.13.09h-.05s0-.05,0-.05h.05s0,.05,0,.05Z"/>
        <polygon class="cls-1" points="6.45 5 6.45 5.14 6.38 5.14 6.38 5.05 6.32 5.05 6.32 5.14 6.25 5.14 6.25 5 6.45 5"/>
      </g>
      <g id="M-3" data-name="M">
        <polygon class="cls-1" points="7.69 4.73 8.27 4.73 8.27 4.78 7.76 4.78 7.76 4.82 8.27 4.82 8.27 4.87 7.69 4.87 7.69 4.73"/>
        <polygon class="cls-1" points="7.57 4.65 8.27 4.65 8.27 4.7 7.64 4.7 7.64 5.09 8.27 5.09 8.27 5.14 7.57 5.14 7.57 4.65"/>
        <polygon class="cls-1" points="7.69 4.91 8.27 4.91 8.27 4.96 7.76 4.96 7.76 5 8.27 5 8.27 5.05 7.69 5.05 7.69 4.91"/>
      </g>
    </g>
  </g>
</svg>