<svg width="43" height="45" viewBox="0 0 43 45" fill="none" xmlns="http://www.w3.org/2000/svg">
<path d="M22.1534 0H24.3688C29.0691 0 33.577 1.99623 36.9007 5.54955C40.2243 9.10287 42.0915 13.9222 42.0915 18.9474V21.3158H22.1534V0ZM24.3688 18.9474H39.8762C39.8762 14.5504 38.2424 10.3334 35.3342 7.22428C32.426 4.11513 28.4816 2.36842 24.3688 2.36842V18.9474ZM17.7228 26.0526H35.4455C35.4455 29.8001 34.4061 33.4633 32.4587 36.5792C30.5113 39.6951 27.7434 42.1236 24.505 43.5577C21.2665 44.9918 17.7031 45.367 14.2652 44.6359C10.8273 43.9048 7.66945 42.1003 5.19088 39.4504C2.71231 36.8006 1.02438 33.4245 0.340546 29.7491C-0.34329 26.0736 0.00767893 22.264 1.34907 18.8018C2.69046 15.3396 4.96203 12.3804 7.87652 10.2985C10.791 8.21651 14.2175 7.10526 17.7228 7.10526V26.0526ZM15.5074 28.421V9.63947C11.6329 10.2465 8.11642 12.3976 5.66382 15.6613C3.21122 18.925 2.00397 23.0596 2.28437 27.2354C2.56476 31.4111 4.31204 35.319 7.17554 38.1747C10.039 41.0303 13.8068 42.6225 17.7228 42.6316C21.4523 42.6321 25.0571 41.1958 27.8767 38.5859C30.6963 35.9761 32.5418 32.3673 33.0751 28.421H15.5074Z" fill="black" fill-opacity="0.88"/>
</svg>
