<svg width="26" height="45" viewBox="0 0 26 45" fill="none" xmlns="http://www.w3.org/2000/svg">
<path d="M14.9874 7.10526H16.486V4.73684C16.486 4.1087 16.3281 3.50628 16.047 3.06212C15.766 2.61795 15.3848 2.36842 14.9874 2.36842H10.4915C10.094 2.36842 9.71281 2.61795 9.43177 3.06212C9.15072 3.50628 8.99283 4.1087 8.99283 4.73684V7.10526H10.4915V12.0126L1.92678 35.4553C1.6535 36.1741 1.50588 36.9947 1.49899 37.8333C1.49211 38.6718 1.6262 39.4982 1.88758 40.228C2.14896 40.9578 2.52825 41.5649 2.98669 41.9872C3.44513 42.4095 3.9663 42.6318 4.49693 42.6316H20.9819C21.5125 42.6318 22.0337 42.4095 22.4921 41.9872C22.9506 41.5649 23.3299 40.9578 23.5912 40.228C23.8526 39.4982 23.9867 38.6718 23.9798 37.8333C23.9729 36.9947 23.8253 36.1741 23.552 35.4553L14.9874 12.0126V7.10526ZM4.49693 45C3.68752 45.0003 2.89307 44.6553 2.19743 44.0013C1.50179 43.3473 0.930759 42.4087 0.544612 41.2845C0.158465 40.1602 -0.028478 38.8921 0.00351384 37.6139C0.0355057 36.3357 0.285246 35.0949 0.726375 34.0224L8.99283 11.3945V9.47368C8.59536 9.47368 8.21418 9.22415 7.93313 8.77999C7.65209 8.33582 7.49419 7.73341 7.49419 7.10526V4.73684C7.49419 3.48055 7.80998 2.27572 8.37207 1.38739C8.93417 0.499059 9.69653 0 10.4915 0H14.9874C15.7823 0 16.5446 0.499059 17.1067 1.38739C17.6688 2.27572 17.9846 3.48055 17.9846 4.73684V7.10526C17.9846 7.73341 17.8267 8.33582 17.5457 8.77999C17.2646 9.22415 16.8834 9.47368 16.486 9.47368V11.3945L24.7524 34.0224C25.1936 35.0949 25.4433 36.3357 25.4753 37.6139C25.5073 38.8921 25.3203 40.1602 24.9342 41.2845C24.5481 42.4087 23.977 43.3473 23.2814 44.0013C22.5857 44.6553 21.7913 45.0003 20.9819 45H4.49693ZM13.9293 29.1126L16.3661 25.2616L20.9819 37.8947H4.49693L9.98192 22.8789L13.9293 29.1126ZM13.9293 32.4616L10.3041 26.7347L7.09256 35.5263H18.3862L16.0454 29.1174L13.9293 32.4616ZM13.4887 16.5789C13.8862 16.5789 14.2674 16.8285 14.5484 17.2726C14.8295 17.7168 14.9874 18.3192 14.9874 18.9474C14.9874 19.5755 14.8295 20.1779 14.5484 20.6221C14.2674 21.0663 13.8862 21.3158 13.4887 21.3158C13.0913 21.3158 12.7101 21.0663 12.429 20.6221C12.148 20.1779 11.9901 19.5755 11.9901 18.9474C11.9901 18.3192 12.148 17.7168 12.429 17.2726C12.7101 16.8285 13.0913 16.5789 13.4887 16.5789Z" fill="black" fill-opacity="0.88"/>
</svg>
