<svg width="45" height="45" viewBox="0 0 45 45" fill="none" xmlns="http://www.w3.org/2000/svg">
<path d="M4.73684 23.6856V42.6317H21.3158V23.6856H4.73684ZM23.6842 23.6856V42.6317H40.2632V23.6856H23.6842ZM42.6316 23.6856V45H2.36842V23.6856H0V9.47598H7.18816L7.10526 8.29184C7.10463 6.47933 7.69815 4.71657 8.79492 3.27351C9.8917 1.83044 11.4313 0.786627 13.1779 0.301907C14.9245 -0.182813 16.7818 -0.0817149 18.4655 0.589718C20.1492 1.26115 21.5664 2.4659 22.5 4.01949C23.4336 2.4659 24.8508 1.26115 26.5345 0.589718C28.2182 -0.0817149 30.0755 -0.182813 31.8221 0.301907C33.5687 0.786627 35.1083 1.83044 36.2051 3.27351C37.3019 4.71657 37.8954 6.47933 37.8947 8.29184L37.8118 9.47598H45V23.6856H42.6316ZM2.36842 11.8442V21.3173H21.3158V11.8442H2.36842ZM42.6316 21.3173V11.8442H23.6842V21.3173H42.6316ZM35.4079 9.47598L35.5263 8.29184C35.5263 6.72158 34.9025 5.21564 33.7921 4.1053C32.6817 2.99495 31.1756 2.37117 29.6053 2.37117C28.0349 2.37117 26.5289 2.99495 25.4184 4.1053C24.308 5.21564 23.6842 6.72158 23.6842 8.29184V9.47598H35.4079ZM21.3158 9.47598V8.29184C21.3158 6.72158 20.692 5.21564 19.5816 4.1053C18.4711 2.99495 16.9651 2.37117 15.3947 2.37117C13.8244 2.37117 12.3183 2.99495 11.2079 4.1053C10.0975 5.21564 9.47368 6.72158 9.47368 8.29184L9.59211 9.47598H21.3158Z" fill="black" fill-opacity="0.88"/>
</svg>
